<svg xmlns="http://www.w3.org/2000/svg" xmlns:xlink="http://www.w3.org/1999/xlink" width="100" zoomAndPan="magnify" viewBox="0 0 75 74.999997" height="100" preserveAspectRatio="xMidYMid meet" version="1.0"><defs><g/><clipPath id="672a5ca82c"><path d="M 0.160156 0 L 34 0 L 34 47 L 0.160156 47 Z M 0.160156 0 " clip-rule="nonzero"/></clipPath><clipPath id="296ff316d4"><rect x="0" width="34" y="0" height="47"/></clipPath><clipPath id="9bca1cc07f"><rect x="0" width="32" y="0" height="54"/></clipPath><clipPath id="2048d16159"><path d="M 42 34 L 62.320312 34 L 62.320312 44 L 42 44 Z M 42 34 " clip-rule="nonzero"/></clipPath><clipPath id="10cad5c8f4"><rect x="0" width="21" y="0" height="10"/></clipPath><clipPath id="0b2ecf1c07"><rect x="0" width="63" y="0" height="75"/></clipPath><clipPath id="a48a090755"><rect x="0" width="72" y="0" height="9"/></clipPath></defs><rect x="-7.5" width="90" fill="#ffffff" y="-7.5" height="89.999996" fill-opacity="1"/><rect x="-7.5" width="90" fill="#1d0738" y="-7.5" height="89.999996" fill-opacity="1"/><g transform="matrix(1, 0, 0, 1, 8, -0.000000000000001893)"><g clip-path="url(#0b2ecf1c07)"><g clip-path="url(#672a5ca82c)"><g transform="matrix(1, 0, 0, 1, 0, -0.000000000000001893)"><g clip-path="url(#296ff316d4)"><g fill="#ffffff" fill-opacity="1"><g transform="translate(0.578126, 30.710461)"><g><path d="M 31.84375 -12.65625 C 32 -12.65625 32.078125 -12.550781 32.078125 -12.34375 C 32.078125 -12.132812 32 -11.988281 31.84375 -11.90625 C 31.476562 -11.75 31.101562 -11.613281 30.71875 -11.5 C 30.332031 -11.394531 29.972656 -11.257812 29.640625 -11.09375 C 28.890625 -10.675781 28.515625 -10.015625 28.515625 -9.109375 L 28.515625 -2.46875 C 28.515625 -2.164062 27.796875 -1.765625 26.359375 -1.265625 C 24.929688 -0.765625 23.765625 -0.394531 22.859375 -0.15625 C 18.660156 0.875 14.90625 0.765625 11.59375 -0.484375 C 7.800781 -1.941406 5.113281 -4.550781 3.53125 -8.3125 C 2.738281 -10.1875 2.34375 -12.050781 2.34375 -13.90625 C 2.34375 -15.769531 2.53125 -17.332031 2.90625 -18.59375 C 4.019531 -22.457031 6.359375 -25.429688 9.921875 -27.515625 C 12.242188 -28.878906 14.6875 -29.5625 17.25 -29.5625 C 19.820312 -29.5625 22.550781 -29.046875 25.4375 -28.015625 C 25.96875 -27.816406 26.269531 -27.71875 26.34375 -27.71875 L 26.578125 -27.71875 L 27.40625 -27.921875 L 27.90625 -27.921875 C 28.0625 -27.921875 28.140625 -27.847656 28.140625 -27.703125 L 28.140625 -20.90625 C 28.140625 -20.644531 27.988281 -20.515625 27.6875 -20.515625 L 27.609375 -20.515625 C 27.347656 -20.546875 27.171875 -20.894531 27.078125 -21.5625 C 27.046875 -21.695312 27.023438 -21.796875 27.015625 -21.859375 C 25.648438 -26.117188 22.773438 -28.25 18.390625 -28.25 C 14.878906 -28.25 12.078125 -26.921875 9.984375 -24.265625 C 7.898438 -21.617188 6.859375 -18.460938 6.859375 -14.796875 C 6.859375 -11.140625 7.910156 -7.90625 10.015625 -5.09375 C 12.117188 -2.28125 15.007812 -0.875 18.6875 -0.875 C 20.570312 -0.875 22.128906 -1.164062 23.359375 -1.75 C 23.835938 -1.988281 24.203125 -2.285156 24.453125 -2.640625 L 24.453125 -8.234375 C 24.453125 -9.492188 24.09375 -10.421875 23.375 -11.015625 C 22.65625 -11.609375 21.328125 -11.90625 19.390625 -11.90625 C 19.242188 -11.90625 19.171875 -12.03125 19.171875 -12.28125 C 19.171875 -12.53125 19.242188 -12.65625 19.390625 -12.65625 Z M 31.84375 -12.65625 "/></g></g></g></g></g></g><g transform="matrix(1, 0, 0, 1, 19, 21)"><g clip-path="url(#9bca1cc07f)"><g fill="#ffffff" fill-opacity="1"><g transform="translate(0.95405, 40.951697)"><g><path d="M 10.8125 -0.15625 C 10.8125 -0.0507812 10.757812 0 10.65625 0 L 0.265625 0 C 0.160156 0 0.109375 -0.0507812 0.109375 -0.15625 L 0.109375 -0.65625 C 0.109375 -0.757812 0.191406 -0.8125 0.359375 -0.8125 C 2.222656 -0.894531 3.476562 -1.882812 4.125 -3.78125 L 12.421875 -27.78125 C 12.429688 -27.8125 12.4375 -27.847656 12.4375 -27.890625 L 12.21875 -28.5625 C 12.21875 -28.625 12.242188 -28.65625 12.296875 -28.65625 L 16.359375 -28.65625 C 16.390625 -28.644531 16.425781 -28.628906 16.46875 -28.609375 C 16.519531 -28.597656 16.554688 -28.5625 16.578125 -28.5 L 25.1875 -4.375 C 25.375 -4.007812 25.523438 -3.675781 25.640625 -3.375 C 25.753906 -3.070312 25.882812 -2.800781 26.03125 -2.5625 C 26.363281 -2.007812 26.898438 -1.582031 27.640625 -1.28125 C 28.265625 -0.96875 28.832031 -0.8125 29.34375 -0.8125 C 29.457031 -0.8125 29.515625 -0.75 29.515625 -0.625 L 29.515625 -0.15625 C 29.515625 -0.0507812 29.457031 0 29.34375 0 L 16.90625 0 C 16.800781 0 16.75 -0.0507812 16.75 -0.15625 L 16.75 -0.65625 C 16.75 -0.757812 17 -0.820312 17.5 -0.84375 C 18 -0.875 18.410156 -0.90625 18.734375 -0.9375 C 20.617188 -1.132812 21.5625 -1.769531 21.5625 -2.84375 C 21.5625 -2.925781 21.550781 -3.019531 21.53125 -3.125 L 18.453125 -11.78125 C 18.441406 -11.8125 18.414062 -11.875 18.375 -11.96875 C 18.207031 -12.425781 17.921875 -12.65625 17.515625 -12.65625 L 10.296875 -12.65625 C 9.890625 -12.65625 9.570312 -12.429688 9.34375 -11.984375 C 9.300781 -11.890625 9.28125 -11.835938 9.28125 -11.828125 L 6.234375 -2.90625 L 6.234375 -2.71875 C 6.234375 -2.363281 6.414062 -2.046875 6.78125 -1.765625 C 7.613281 -1.128906 8.726562 -0.8125 10.125 -0.8125 L 10.65625 -0.8125 C 10.757812 -0.8125 10.8125 -0.757812 10.8125 -0.65625 Z M 16.828125 -14.921875 C 17.066406 -14.921875 17.1875 -15.019531 17.1875 -15.21875 C 17.1875 -15.332031 17.160156 -15.457031 17.109375 -15.59375 L 14.078125 -23.921875 C 13.941406 -24.285156 13.84375 -24.46875 13.78125 -24.46875 C 13.707031 -24.46875 13.597656 -24.28125 13.453125 -23.90625 L 10.609375 -15.59375 C 10.554688 -15.457031 10.53125 -15.3125 10.53125 -15.15625 C 10.53125 -15 10.628906 -14.921875 10.828125 -14.921875 Z M 16.828125 -14.921875 "/></g></g></g></g></g><path stroke-linecap="butt" transform="matrix(0.942041, -1.27941, 1.27941, 0.942041, 11.165884, 55.571032)" fill="none" stroke-linejoin="miter" d="M -0.000800628 0.499885 L 29.185319 0.501117 " stroke="#ffffff" stroke-width="1" stroke-opacity="1" stroke-miterlimit="4"/><g clip-path="url(#2048d16159)"><g transform="matrix(1, 0, 0, 1, 42, 34)"><g clip-path="url(#10cad5c8f4)"><g fill="#ffffff" fill-opacity="1"><g transform="translate(1.556859, 7.179641)"><g><path d="M 3.25 -0.5625 L 3.21875 -0.5625 C 3.0625 -0.332031 2.890625 -0.171875 2.703125 -0.078125 C 2.523438 0.015625 2.3125 0.0625 2.0625 0.0625 C 1.8125 0.0625 1.578125 0.0195312 1.359375 -0.0625 C 1.148438 -0.15625 0.96875 -0.285156 0.8125 -0.453125 C 0.65625 -0.617188 0.535156 -0.816406 0.453125 -1.046875 C 0.367188 -1.273438 0.328125 -1.519531 0.328125 -1.78125 C 0.328125 -2.050781 0.367188 -2.296875 0.453125 -2.515625 C 0.535156 -2.742188 0.65625 -2.941406 0.8125 -3.109375 C 0.96875 -3.273438 1.148438 -3.398438 1.359375 -3.484375 C 1.578125 -3.578125 1.8125 -3.625 2.0625 -3.625 C 2.28125 -3.625 2.472656 -3.585938 2.640625 -3.515625 C 2.804688 -3.441406 2.96875 -3.328125 3.125 -3.171875 L 3.125 -3.859375 C 3.125 -4.117188 3.117188 -4.332031 3.109375 -4.5 C 3.109375 -4.664062 3.101562 -4.78125 3.09375 -4.84375 C 3.070312 -4.945312 3.007812 -5.019531 2.90625 -5.0625 C 2.800781 -5.101562 2.632812 -5.125 2.40625 -5.125 L 2.40625 -5.328125 L 3.78125 -5.578125 L 3.78125 -1.703125 C 3.78125 -1.390625 3.78125 -1.132812 3.78125 -0.9375 C 3.789062 -0.738281 3.804688 -0.597656 3.828125 -0.515625 C 3.835938 -0.460938 3.851562 -0.414062 3.875 -0.375 C 3.894531 -0.34375 3.921875 -0.316406 3.953125 -0.296875 C 3.992188 -0.273438 4.046875 -0.257812 4.109375 -0.25 C 4.179688 -0.238281 4.265625 -0.234375 4.359375 -0.234375 L 4.359375 0 L 3.25 0.0625 Z M 3.125 -2.046875 C 3.125 -2.285156 3.109375 -2.460938 3.078125 -2.578125 C 3.054688 -2.703125 3.007812 -2.804688 2.9375 -2.890625 C 2.832031 -3.023438 2.695312 -3.128906 2.53125 -3.203125 C 2.375 -3.273438 2.21875 -3.3125 2.0625 -3.3125 C 1.738281 -3.3125 1.492188 -3.175781 1.328125 -2.90625 C 1.160156 -2.632812 1.078125 -2.273438 1.078125 -1.828125 C 1.078125 -1.585938 1.097656 -1.367188 1.140625 -1.171875 C 1.179688 -0.984375 1.242188 -0.820312 1.328125 -0.6875 C 1.410156 -0.550781 1.515625 -0.441406 1.640625 -0.359375 C 1.765625 -0.285156 1.90625 -0.25 2.0625 -0.25 C 2.144531 -0.25 2.226562 -0.257812 2.3125 -0.28125 C 2.394531 -0.300781 2.472656 -0.328125 2.546875 -0.359375 C 2.628906 -0.398438 2.703125 -0.445312 2.765625 -0.5 C 2.835938 -0.550781 2.894531 -0.609375 2.9375 -0.671875 C 3 -0.773438 3.046875 -0.894531 3.078125 -1.03125 C 3.109375 -1.175781 3.125 -1.367188 3.125 -1.609375 Z M 3.125 -2.046875 "/></g></g></g><g fill="#ffffff" fill-opacity="1"><g transform="translate(8.10656, 7.179641)"><g><path d="M 3.5 -0.625 C 3.125 -0.164062 2.65625 0.0625 2.09375 0.0625 C 1.820312 0.0625 1.578125 0.0195312 1.359375 -0.0625 C 1.148438 -0.144531 0.96875 -0.265625 0.8125 -0.421875 C 0.65625 -0.585938 0.535156 -0.78125 0.453125 -1 C 0.367188 -1.226562 0.328125 -1.472656 0.328125 -1.734375 C 0.328125 -2.015625 0.367188 -2.269531 0.453125 -2.5 C 0.546875 -2.726562 0.675781 -2.925781 0.84375 -3.09375 C 1.007812 -3.257812 1.203125 -3.390625 1.421875 -3.484375 C 1.648438 -3.578125 1.898438 -3.625 2.171875 -3.625 C 2.609375 -3.625 2.941406 -3.503906 3.171875 -3.265625 C 3.410156 -3.035156 3.53125 -2.703125 3.53125 -2.265625 C 3.53125 -2.203125 3.515625 -2.160156 3.484375 -2.140625 C 3.460938 -2.128906 3.410156 -2.125 3.328125 -2.125 L 1.109375 -2.125 C 1.109375 -2.09375 1.101562 -2.050781 1.09375 -2 C 1.09375 -1.945312 1.09375 -1.890625 1.09375 -1.828125 C 1.09375 -1.597656 1.117188 -1.382812 1.171875 -1.1875 C 1.222656 -1 1.300781 -0.835938 1.40625 -0.703125 C 1.519531 -0.566406 1.648438 -0.460938 1.796875 -0.390625 C 1.941406 -0.316406 2.101562 -0.28125 2.28125 -0.28125 C 2.46875 -0.28125 2.640625 -0.320312 2.796875 -0.40625 C 2.960938 -0.488281 3.128906 -0.625 3.296875 -0.8125 Z M 2.40625 -2.4375 C 2.488281 -2.4375 2.554688 -2.4375 2.609375 -2.4375 C 2.660156 -2.445312 2.703125 -2.457031 2.734375 -2.46875 C 2.765625 -2.488281 2.78125 -2.507812 2.78125 -2.53125 C 2.789062 -2.550781 2.796875 -2.582031 2.796875 -2.625 C 2.796875 -2.832031 2.726562 -3 2.59375 -3.125 C 2.46875 -3.25 2.289062 -3.3125 2.0625 -3.3125 C 1.582031 -3.3125 1.28125 -3.019531 1.15625 -2.4375 Z M 2.40625 -2.4375 "/></g></g></g><g fill="#ffffff" fill-opacity="1"><g transform="translate(13.883732, 7.179641)"><g><path d="M 0.703125 -2.734375 C 0.648438 -2.859375 0.597656 -2.960938 0.546875 -3.046875 C 0.503906 -3.128906 0.457031 -3.1875 0.40625 -3.21875 C 0.363281 -3.257812 0.3125 -3.285156 0.25 -3.296875 C 0.1875 -3.304688 0.113281 -3.316406 0.03125 -3.328125 L 0.03125 -3.5625 L 1.8125 -3.5625 L 1.8125 -3.328125 C 1.71875 -3.316406 1.640625 -3.3125 1.578125 -3.3125 C 1.523438 -3.3125 1.484375 -3.300781 1.453125 -3.28125 C 1.421875 -3.269531 1.394531 -3.25 1.375 -3.21875 C 1.363281 -3.1875 1.359375 -3.144531 1.359375 -3.09375 C 1.359375 -3.007812 1.367188 -2.9375 1.390625 -2.875 C 1.410156 -2.8125 1.429688 -2.742188 1.453125 -2.671875 L 2.171875 -0.71875 L 2.203125 -0.71875 L 2.8125 -2.171875 C 2.90625 -2.390625 2.972656 -2.566406 3.015625 -2.703125 C 3.054688 -2.835938 3.078125 -2.957031 3.078125 -3.0625 C 3.078125 -3.164062 3.046875 -3.234375 2.984375 -3.265625 C 2.929688 -3.304688 2.816406 -3.328125 2.640625 -3.328125 L 2.640625 -3.5625 L 3.984375 -3.5625 L 3.984375 -3.328125 C 3.910156 -3.328125 3.84375 -3.304688 3.78125 -3.265625 C 3.71875 -3.234375 3.664062 -3.191406 3.625 -3.140625 C 3.59375 -3.085938 3.554688 -3.019531 3.515625 -2.9375 C 3.472656 -2.851562 3.429688 -2.765625 3.390625 -2.671875 C 3.359375 -2.585938 3.328125 -2.5 3.296875 -2.40625 C 3.265625 -2.320312 3.238281 -2.253906 3.21875 -2.203125 L 2.21875 0.078125 L 1.828125 0.078125 Z M 0.703125 -2.734375 "/></g></g></g></g></g></g></g></g><g transform="matrix(1, 0, 0, 1, 1, 64)"><g clip-path="url(#a48a090755)"><g fill="#ffffff" fill-opacity="1"><g transform="translate(1.155863, 6.069659)"><g><path d="M 2.625 0.0625 C 2.269531 0.0625 1.945312 0.0078125 1.65625 -0.09375 C 1.363281 -0.207031 1.113281 -0.363281 0.90625 -0.5625 C 0.707031 -0.757812 0.550781 -1 0.4375 -1.28125 C 0.332031 -1.5625 0.28125 -1.875 0.28125 -2.21875 C 0.28125 -2.582031 0.335938 -2.914062 0.453125 -3.21875 C 0.578125 -3.519531 0.742188 -3.78125 0.953125 -4 C 1.160156 -4.21875 1.410156 -4.382812 1.703125 -4.5 C 2.003906 -4.625 2.335938 -4.6875 2.703125 -4.6875 C 2.953125 -4.6875 3.1875 -4.648438 3.40625 -4.578125 C 3.632812 -4.503906 3.878906 -4.394531 4.140625 -4.25 L 4.25 -4.625 L 4.46875 -4.625 L 4.46875 -3.109375 L 4.15625 -3.109375 C 4.082031 -3.484375 3.921875 -3.773438 3.671875 -3.984375 C 3.429688 -4.191406 3.128906 -4.296875 2.765625 -4.296875 C 2.304688 -4.296875 1.945312 -4.117188 1.6875 -3.765625 C 1.4375 -3.410156 1.3125 -2.914062 1.3125 -2.28125 C 1.3125 -1.65625 1.4375 -1.175781 1.6875 -0.84375 C 1.9375 -0.507812 2.296875 -0.34375 2.765625 -0.34375 C 3.109375 -0.34375 3.375 -0.425781 3.5625 -0.59375 C 3.757812 -0.769531 3.859375 -1.015625 3.859375 -1.328125 C 3.859375 -1.515625 3.804688 -1.648438 3.703125 -1.734375 C 3.609375 -1.816406 3.445312 -1.867188 3.21875 -1.890625 L 3.21875 -2.125 L 5.171875 -2.125 L 5.171875 -1.890625 C 4.972656 -1.890625 4.832031 -1.84375 4.75 -1.75 C 4.675781 -1.664062 4.640625 -1.515625 4.640625 -1.296875 L 4.640625 -0.5 C 4.554688 -0.5 4.484375 -0.492188 4.421875 -0.484375 C 4.359375 -0.484375 4.296875 -0.472656 4.234375 -0.453125 C 4.179688 -0.429688 4.117188 -0.398438 4.046875 -0.359375 C 3.972656 -0.328125 3.882812 -0.273438 3.78125 -0.203125 C 3.46875 -0.0234375 3.082031 0.0625 2.625 0.0625 Z M 2.625 0.0625 "/></g></g></g><g fill="#ffffff" fill-opacity="1"><g transform="translate(8.208921, 6.069659)"><g><path d="M 2.796875 -2.203125 C 2.796875 -2.359375 2.789062 -2.484375 2.78125 -2.578125 C 2.769531 -2.671875 2.742188 -2.742188 2.703125 -2.796875 C 2.671875 -2.847656 2.617188 -2.878906 2.546875 -2.890625 C 2.484375 -2.910156 2.390625 -2.925781 2.265625 -2.9375 L 2.265625 -3.1875 L 3.625 -3.1875 L 3.625 -1.359375 C 3.625 -1.117188 3.625 -0.925781 3.625 -0.78125 C 3.632812 -0.644531 3.648438 -0.546875 3.671875 -0.484375 C 3.679688 -0.429688 3.691406 -0.390625 3.703125 -0.359375 C 3.722656 -0.328125 3.75 -0.300781 3.78125 -0.28125 C 3.820312 -0.269531 3.875 -0.257812 3.9375 -0.25 C 4 -0.238281 4.078125 -0.234375 4.171875 -0.234375 L 4.171875 0 L 2.984375 0.0625 L 2.921875 -0.46875 L 2.890625 -0.46875 C 2.785156 -0.300781 2.640625 -0.171875 2.453125 -0.078125 C 2.265625 0.015625 2.054688 0.0625 1.828125 0.0625 C 1.398438 0.0625 1.070312 -0.0859375 0.84375 -0.390625 C 0.675781 -0.628906 0.59375 -0.960938 0.59375 -1.390625 L 0.59375 -2.203125 C 0.59375 -2.359375 0.585938 -2.484375 0.578125 -2.578125 C 0.566406 -2.671875 0.546875 -2.742188 0.515625 -2.796875 C 0.484375 -2.847656 0.429688 -2.878906 0.359375 -2.890625 C 0.296875 -2.910156 0.203125 -2.925781 0.078125 -2.9375 L 0.078125 -3.1875 L 1.421875 -3.1875 L 1.421875 -1.484375 C 1.421875 -1.078125 1.46875 -0.78125 1.5625 -0.59375 C 1.664062 -0.414062 1.828125 -0.328125 2.046875 -0.328125 C 2.285156 -0.328125 2.46875 -0.4375 2.59375 -0.65625 C 2.726562 -0.863281 2.796875 -1.171875 2.796875 -1.578125 Z M 2.796875 -2.203125 "/></g></g></g><g fill="#ffffff" fill-opacity="1"><g transform="translate(14.260395, 6.069659)"><g><path d="M 0.515625 0 L 0.328125 0 L 0.328125 -1.09375 L 0.578125 -1.09375 C 0.640625 -0.800781 0.734375 -0.585938 0.859375 -0.453125 C 0.992188 -0.328125 1.164062 -0.265625 1.375 -0.265625 C 1.519531 -0.265625 1.632812 -0.296875 1.71875 -0.359375 C 1.800781 -0.421875 1.84375 -0.503906 1.84375 -0.609375 C 1.84375 -0.722656 1.789062 -0.832031 1.6875 -0.9375 C 1.582031 -1.039062 1.421875 -1.15625 1.203125 -1.28125 C 0.898438 -1.445312 0.679688 -1.609375 0.546875 -1.765625 C 0.410156 -1.929688 0.34375 -2.113281 0.34375 -2.3125 C 0.34375 -2.445312 0.367188 -2.570312 0.421875 -2.6875 C 0.472656 -2.800781 0.539062 -2.898438 0.625 -2.984375 C 0.707031 -3.066406 0.804688 -3.128906 0.921875 -3.171875 C 1.046875 -3.222656 1.179688 -3.25 1.328125 -3.25 C 1.453125 -3.25 1.570312 -3.226562 1.6875 -3.1875 C 1.8125 -3.15625 1.921875 -3.109375 2.015625 -3.046875 L 2.125 -3.1875 L 2.28125 -3.1875 L 2.28125 -2.28125 L 2.046875 -2.28125 C 1.953125 -2.507812 1.851562 -2.671875 1.75 -2.765625 C 1.65625 -2.867188 1.539062 -2.921875 1.40625 -2.921875 C 1.289062 -2.921875 1.195312 -2.890625 1.125 -2.828125 C 1.0625 -2.765625 1.03125 -2.6875 1.03125 -2.59375 C 1.03125 -2.476562 1.078125 -2.367188 1.171875 -2.265625 C 1.273438 -2.171875 1.441406 -2.0625 1.671875 -1.9375 C 1.828125 -1.851562 1.960938 -1.769531 2.078125 -1.6875 C 2.203125 -1.601562 2.300781 -1.515625 2.375 -1.421875 C 2.445312 -1.335938 2.5 -1.25 2.53125 -1.15625 C 2.5625 -1.0625 2.578125 -0.960938 2.578125 -0.859375 C 2.578125 -0.710938 2.550781 -0.582031 2.5 -0.46875 C 2.445312 -0.363281 2.375 -0.269531 2.28125 -0.1875 C 2.1875 -0.113281 2.070312 -0.0507812 1.9375 0 C 1.800781 0.0390625 1.648438 0.0625 1.484375 0.0625 C 1.316406 0.0625 1.15625 0.0390625 1 0 C 0.851562 -0.0507812 0.734375 -0.117188 0.640625 -0.203125 Z M 0.515625 0 "/></g></g></g><g fill="#ffffff" fill-opacity="1"><g transform="translate(18.854475, 6.069659)"><g><path d="M 0.15625 -2.84375 L 0.15625 -3.125 C 0.394531 -3.1875 0.59375 -3.285156 0.75 -3.421875 C 0.914062 -3.566406 1.035156 -3.726562 1.109375 -3.90625 L 1.421875 -3.90625 L 1.421875 -3.1875 L 2.109375 -3.1875 L 2.109375 -2.84375 L 1.421875 -2.84375 L 1.421875 -1.015625 C 1.421875 -0.765625 1.445312 -0.585938 1.5 -0.484375 C 1.550781 -0.378906 1.644531 -0.328125 1.78125 -0.328125 C 1.9375 -0.328125 2.050781 -0.398438 2.125 -0.546875 L 2.25 -0.359375 C 2.144531 -0.078125 1.882812 0.0625 1.46875 0.0625 C 1.1875 0.0625 0.96875 0 0.8125 -0.125 C 0.664062 -0.257812 0.59375 -0.441406 0.59375 -0.671875 L 0.59375 -2.84375 Z M 0.15625 -2.84375 "/></g></g></g><g fill="#ffffff" fill-opacity="1"><g transform="translate(22.944761, 6.069659)"><g><path d="M 2.0625 -1.703125 C 1.726562 -1.554688 1.472656 -1.414062 1.296875 -1.28125 C 1.128906 -1.15625 1.046875 -1.019531 1.046875 -0.875 C 1.046875 -0.757812 1.078125 -0.664062 1.140625 -0.59375 C 1.203125 -0.53125 1.285156 -0.5 1.390625 -0.5 C 1.484375 -0.5 1.570312 -0.515625 1.65625 -0.546875 C 1.738281 -0.585938 1.8125 -0.632812 1.875 -0.6875 C 1.9375 -0.75 1.984375 -0.816406 2.015625 -0.890625 C 2.046875 -0.972656 2.0625 -1.054688 2.0625 -1.140625 Z M 2.0625 -2.03125 L 2.0625 -2.28125 C 2.0625 -2.507812 2.019531 -2.675781 1.9375 -2.78125 C 1.851562 -2.894531 1.726562 -2.953125 1.5625 -2.953125 C 1.445312 -2.953125 1.359375 -2.921875 1.296875 -2.859375 C 1.234375 -2.796875 1.175781 -2.691406 1.125 -2.546875 C 1.09375 -2.441406 1.039062 -2.359375 0.96875 -2.296875 C 0.90625 -2.242188 0.816406 -2.21875 0.703125 -2.21875 C 0.585938 -2.21875 0.5 -2.253906 0.4375 -2.328125 C 0.382812 -2.398438 0.359375 -2.492188 0.359375 -2.609375 C 0.359375 -2.804688 0.460938 -2.957031 0.671875 -3.0625 C 0.878906 -3.175781 1.195312 -3.234375 1.625 -3.234375 C 2.070312 -3.234375 2.390625 -3.148438 2.578125 -2.984375 C 2.773438 -2.828125 2.875 -2.5625 2.875 -2.1875 L 2.875 -0.875 C 2.875 -0.53125 2.941406 -0.359375 3.078125 -0.359375 C 3.148438 -0.359375 3.21875 -0.382812 3.28125 -0.4375 L 3.375 -0.265625 C 3.3125 -0.160156 3.222656 -0.078125 3.109375 -0.015625 C 2.992188 0.0351562 2.863281 0.0625 2.71875 0.0625 C 2.53125 0.0625 2.382812 0.00390625 2.28125 -0.109375 C 2.1875 -0.222656 2.140625 -0.378906 2.140625 -0.578125 L 2.125 -0.578125 C 2 -0.367188 1.84375 -0.210938 1.65625 -0.109375 C 1.476562 -0.00390625 1.269531 0.046875 1.03125 0.046875 C 0.78125 0.046875 0.578125 -0.0195312 0.421875 -0.15625 C 0.273438 -0.300781 0.203125 -0.488281 0.203125 -0.71875 C 0.203125 -0.894531 0.28125 -1.054688 0.4375 -1.203125 C 0.59375 -1.359375 0.851562 -1.507812 1.21875 -1.65625 Z M 2.0625 -2.03125 "/></g></g></g><g fill="#ffffff" fill-opacity="1"><g transform="translate(28.042634, 6.069659)"><g><path d="M 0.609375 -2.40625 C 0.566406 -2.519531 0.523438 -2.613281 0.484375 -2.6875 C 0.441406 -2.757812 0.398438 -2.8125 0.359375 -2.84375 C 0.316406 -2.882812 0.269531 -2.910156 0.21875 -2.921875 C 0.164062 -2.929688 0.109375 -2.9375 0.046875 -2.9375 L 0.046875 -3.1875 L 1.84375 -3.1875 L 1.84375 -2.9375 C 1.738281 -2.9375 1.65625 -2.929688 1.59375 -2.921875 C 1.539062 -2.921875 1.5 -2.910156 1.46875 -2.890625 C 1.4375 -2.878906 1.414062 -2.859375 1.40625 -2.828125 C 1.394531 -2.804688 1.390625 -2.773438 1.390625 -2.734375 C 1.390625 -2.679688 1.398438 -2.617188 1.421875 -2.546875 C 1.441406 -2.484375 1.46875 -2.421875 1.5 -2.359375 L 2.0625 -0.78125 L 2.09375 -0.78125 L 2.734375 -2.359375 C 2.765625 -2.421875 2.785156 -2.476562 2.796875 -2.53125 C 2.816406 -2.582031 2.828125 -2.632812 2.828125 -2.6875 C 2.828125 -2.769531 2.796875 -2.832031 2.734375 -2.875 C 2.671875 -2.914062 2.566406 -2.9375 2.421875 -2.9375 L 2.421875 -3.1875 L 3.75 -3.1875 L 3.75 -2.9375 C 3.632812 -2.9375 3.535156 -2.90625 3.453125 -2.84375 C 3.378906 -2.789062 3.300781 -2.671875 3.21875 -2.484375 L 2.09375 0.0625 L 1.546875 0.0625 Z M 0.609375 -2.40625 "/></g></g></g><g fill="#ffffff" fill-opacity="1"><g transform="translate(33.458374, 6.069659)"><g><path d="M 1.96875 -3.234375 C 2.207031 -3.234375 2.429688 -3.191406 2.640625 -3.109375 C 2.859375 -3.035156 3.046875 -2.925781 3.203125 -2.78125 C 3.367188 -2.632812 3.5 -2.460938 3.59375 -2.265625 C 3.6875 -2.066406 3.734375 -1.847656 3.734375 -1.609375 C 3.734375 -1.367188 3.6875 -1.144531 3.59375 -0.9375 C 3.5 -0.738281 3.367188 -0.5625 3.203125 -0.40625 C 3.046875 -0.257812 2.859375 -0.144531 2.640625 -0.0625 C 2.429688 0.0195312 2.207031 0.0625 1.96875 0.0625 C 1.726562 0.0625 1.503906 0.0195312 1.296875 -0.0625 C 1.085938 -0.144531 0.898438 -0.257812 0.734375 -0.40625 C 0.578125 -0.550781 0.453125 -0.726562 0.359375 -0.9375 C 0.265625 -1.144531 0.21875 -1.367188 0.21875 -1.609375 C 0.21875 -1.847656 0.265625 -2.066406 0.359375 -2.265625 C 0.453125 -2.460938 0.578125 -2.632812 0.734375 -2.78125 C 0.898438 -2.925781 1.085938 -3.035156 1.296875 -3.109375 C 1.503906 -3.191406 1.726562 -3.234375 1.96875 -3.234375 Z M 1.96875 -2.890625 C 1.84375 -2.890625 1.726562 -2.859375 1.625 -2.796875 C 1.53125 -2.734375 1.445312 -2.644531 1.375 -2.53125 C 1.3125 -2.425781 1.257812 -2.289062 1.21875 -2.125 C 1.175781 -1.96875 1.15625 -1.796875 1.15625 -1.609375 C 1.15625 -1.410156 1.175781 -1.226562 1.21875 -1.0625 C 1.257812 -0.90625 1.3125 -0.769531 1.375 -0.65625 C 1.445312 -0.539062 1.53125 -0.453125 1.625 -0.390625 C 1.726562 -0.335938 1.84375 -0.3125 1.96875 -0.3125 C 2.09375 -0.3125 2.203125 -0.335938 2.296875 -0.390625 C 2.398438 -0.453125 2.488281 -0.539062 2.5625 -0.65625 C 2.632812 -0.769531 2.691406 -0.90625 2.734375 -1.0625 C 2.773438 -1.226562 2.796875 -1.410156 2.796875 -1.609375 C 2.796875 -1.796875 2.773438 -1.96875 2.734375 -2.125 C 2.691406 -2.28125 2.632812 -2.414062 2.5625 -2.53125 C 2.488281 -2.644531 2.398438 -2.734375 2.296875 -2.796875 C 2.203125 -2.859375 2.09375 -2.890625 1.96875 -2.890625 Z M 1.96875 -2.890625 "/></g></g></g><g fill="#ffffff" fill-opacity="1"><g transform="translate(39.215973, 6.069659)"><g/></g></g><g fill="#ffffff" fill-opacity="1"><g transform="translate(42.370649, 6.069659)"><g><path d="M 3 -1.390625 L 1.3125 -1.390625 C 1.125 -0.972656 1.03125 -0.679688 1.03125 -0.515625 C 1.03125 -0.398438 1.070312 -0.320312 1.15625 -0.28125 C 1.25 -0.25 1.382812 -0.234375 1.5625 -0.234375 L 1.5625 0 L -0.078125 0 L -0.078125 -0.234375 C 0.015625 -0.253906 0.0976562 -0.269531 0.171875 -0.28125 C 0.242188 -0.300781 0.304688 -0.328125 0.359375 -0.359375 C 0.410156 -0.398438 0.457031 -0.445312 0.5 -0.5 C 0.539062 -0.5625 0.578125 -0.632812 0.609375 -0.71875 L 2.1875 -4.6875 L 2.640625 -4.6875 L 4.0625 -1.171875 C 4.144531 -0.972656 4.21875 -0.8125 4.28125 -0.6875 C 4.34375 -0.570312 4.40625 -0.484375 4.46875 -0.421875 C 4.53125 -0.367188 4.601562 -0.328125 4.6875 -0.296875 C 4.78125 -0.273438 4.894531 -0.257812 5.03125 -0.25 L 5.03125 0 L 2.765625 0 L 2.765625 -0.25 C 2.953125 -0.257812 3.085938 -0.28125 3.171875 -0.3125 C 3.253906 -0.34375 3.296875 -0.40625 3.296875 -0.5 C 3.296875 -0.550781 3.28125 -0.617188 3.25 -0.703125 C 3.226562 -0.796875 3.191406 -0.90625 3.140625 -1.03125 Z M 1.453125 -1.765625 L 2.875 -1.765625 L 2.1875 -3.578125 L 2.15625 -3.578125 Z M 1.453125 -1.765625 "/></g></g></g><g fill="#ffffff" fill-opacity="1"><g transform="translate(49.021876, 6.069659)"><g><path d="M 1.34375 -1.3125 C 1.34375 -1.164062 1.363281 -1.03125 1.40625 -0.90625 C 1.445312 -0.78125 1.503906 -0.671875 1.578125 -0.578125 C 1.648438 -0.484375 1.734375 -0.410156 1.828125 -0.359375 C 1.929688 -0.304688 2.046875 -0.28125 2.171875 -0.28125 C 2.410156 -0.28125 2.59375 -0.390625 2.71875 -0.609375 C 2.84375 -0.828125 2.90625 -1.148438 2.90625 -1.578125 C 2.90625 -1.992188 2.84375 -2.3125 2.71875 -2.53125 C 2.59375 -2.75 2.410156 -2.859375 2.171875 -2.859375 C 2.023438 -2.859375 1.890625 -2.816406 1.765625 -2.734375 C 1.648438 -2.660156 1.554688 -2.554688 1.484375 -2.421875 C 1.390625 -2.222656 1.34375 -1.976562 1.34375 -1.6875 Z M 1.34375 -2.765625 L 1.359375 -2.765625 C 1.460938 -2.921875 1.597656 -3.035156 1.765625 -3.109375 C 1.929688 -3.191406 2.117188 -3.234375 2.328125 -3.234375 C 2.535156 -3.234375 2.726562 -3.191406 2.90625 -3.109375 C 3.09375 -3.023438 3.253906 -2.90625 3.390625 -2.75 C 3.523438 -2.601562 3.628906 -2.429688 3.703125 -2.234375 C 3.773438 -2.035156 3.8125 -1.820312 3.8125 -1.59375 C 3.8125 -1.351562 3.769531 -1.128906 3.6875 -0.921875 C 3.601562 -0.722656 3.488281 -0.550781 3.34375 -0.40625 C 3.207031 -0.257812 3.046875 -0.144531 2.859375 -0.0625 C 2.671875 0.0195312 2.46875 0.0625 2.25 0.0625 C 2.03125 0.0625 1.820312 0.0195312 1.625 -0.0625 C 1.4375 -0.144531 1.285156 -0.257812 1.171875 -0.40625 L 0.71875 0 L 0.515625 0 L 0.515625 -3.5625 C 0.515625 -3.945312 0.488281 -4.207031 0.4375 -4.34375 C 0.414062 -4.375 0.394531 -4.398438 0.375 -4.421875 C 0.363281 -4.441406 0.34375 -4.457031 0.3125 -4.46875 C 0.289062 -4.476562 0.253906 -4.488281 0.203125 -4.5 C 0.148438 -4.507812 0.0820312 -4.519531 0 -4.53125 L 0 -4.734375 L 1.34375 -4.984375 Z M 1.34375 -2.765625 "/></g></g></g><g fill="#ffffff" fill-opacity="1"><g transform="translate(54.863439, 6.069659)"><g><path d="M 1.546875 -0.9375 C 1.546875 -0.78125 1.550781 -0.65625 1.5625 -0.5625 C 1.582031 -0.46875 1.613281 -0.394531 1.65625 -0.34375 C 1.695312 -0.300781 1.757812 -0.269531 1.84375 -0.25 C 1.925781 -0.238281 2.039062 -0.234375 2.1875 -0.234375 L 2.1875 0 L 0.1875 0 L 0.1875 -0.234375 C 0.300781 -0.242188 0.394531 -0.253906 0.46875 -0.265625 C 0.539062 -0.285156 0.59375 -0.316406 0.625 -0.359375 C 0.664062 -0.410156 0.691406 -0.484375 0.703125 -0.578125 C 0.710938 -0.671875 0.71875 -0.789062 0.71875 -0.9375 L 0.71875 -1.671875 C 0.71875 -1.921875 0.707031 -2.117188 0.6875 -2.265625 C 0.675781 -2.410156 0.648438 -2.523438 0.609375 -2.609375 C 0.578125 -2.691406 0.523438 -2.742188 0.453125 -2.765625 C 0.378906 -2.796875 0.28125 -2.8125 0.15625 -2.8125 L 0.15625 -3.015625 L 1.359375 -3.234375 L 1.453125 -2.546875 L 1.46875 -2.546875 C 1.582031 -2.765625 1.726562 -2.929688 1.90625 -3.046875 C 2.082031 -3.171875 2.265625 -3.234375 2.453125 -3.234375 C 2.609375 -3.234375 2.734375 -3.195312 2.828125 -3.125 C 2.921875 -3.050781 2.96875 -2.957031 2.96875 -2.84375 C 2.96875 -2.707031 2.929688 -2.59375 2.859375 -2.5 C 2.785156 -2.414062 2.6875 -2.375 2.5625 -2.375 C 2.5 -2.375 2.441406 -2.382812 2.390625 -2.40625 C 2.347656 -2.4375 2.304688 -2.46875 2.265625 -2.5 C 2.234375 -2.53125 2.195312 -2.554688 2.15625 -2.578125 C 2.113281 -2.609375 2.078125 -2.625 2.046875 -2.625 C 1.960938 -2.625 1.882812 -2.570312 1.8125 -2.46875 C 1.75 -2.375 1.695312 -2.238281 1.65625 -2.0625 C 1.625 -1.945312 1.597656 -1.8125 1.578125 -1.65625 C 1.554688 -1.507812 1.546875 -1.363281 1.546875 -1.21875 Z M 1.546875 -0.9375 "/></g></g></g><g fill="#ffffff" fill-opacity="1"><g transform="translate(59.613451, 6.069659)"><g><path d="M 3.234375 -0.5625 C 2.867188 -0.144531 2.414062 0.0625 1.875 0.0625 C 1.625 0.0625 1.398438 0.0234375 1.203125 -0.046875 C 1.003906 -0.128906 0.832031 -0.238281 0.6875 -0.375 C 0.539062 -0.519531 0.425781 -0.691406 0.34375 -0.890625 C 0.269531 -1.085938 0.234375 -1.304688 0.234375 -1.546875 C 0.234375 -1.796875 0.273438 -2.019531 0.359375 -2.21875 C 0.441406 -2.425781 0.554688 -2.601562 0.703125 -2.75 C 0.859375 -2.90625 1.039062 -3.023438 1.25 -3.109375 C 1.46875 -3.191406 1.703125 -3.234375 1.953125 -3.234375 C 2.378906 -3.234375 2.707031 -3.117188 2.9375 -2.890625 C 3.175781 -2.671875 3.296875 -2.351562 3.296875 -1.9375 C 3.296875 -1.875 3.285156 -1.832031 3.265625 -1.8125 C 3.242188 -1.800781 3.1875 -1.796875 3.09375 -1.796875 L 1.15625 -1.796875 C 1.144531 -1.765625 1.140625 -1.703125 1.140625 -1.609375 C 1.140625 -1.210938 1.222656 -0.898438 1.390625 -0.671875 C 1.566406 -0.441406 1.800781 -0.328125 2.09375 -0.328125 C 2.257812 -0.328125 2.425781 -0.363281 2.59375 -0.4375 C 2.757812 -0.519531 2.921875 -0.628906 3.078125 -0.765625 Z M 2.078125 -2.140625 C 2.234375 -2.140625 2.332031 -2.144531 2.375 -2.15625 C 2.425781 -2.175781 2.453125 -2.222656 2.453125 -2.296875 C 2.453125 -2.472656 2.398438 -2.613281 2.296875 -2.71875 C 2.203125 -2.832031 2.078125 -2.890625 1.921875 -2.890625 C 1.753906 -2.890625 1.601562 -2.816406 1.46875 -2.671875 C 1.332031 -2.535156 1.242188 -2.359375 1.203125 -2.140625 Z M 2.078125 -2.140625 "/></g></g></g><g fill="#ffffff" fill-opacity="1"><g transform="translate(64.921235, 6.069659)"><g><path d="M 2.796875 -2.203125 C 2.796875 -2.359375 2.789062 -2.484375 2.78125 -2.578125 C 2.769531 -2.671875 2.742188 -2.742188 2.703125 -2.796875 C 2.671875 -2.847656 2.617188 -2.878906 2.546875 -2.890625 C 2.484375 -2.910156 2.390625 -2.925781 2.265625 -2.9375 L 2.265625 -3.1875 L 3.625 -3.1875 L 3.625 -1.359375 C 3.625 -1.117188 3.625 -0.925781 3.625 -0.78125 C 3.632812 -0.644531 3.648438 -0.546875 3.671875 -0.484375 C 3.679688 -0.429688 3.691406 -0.390625 3.703125 -0.359375 C 3.722656 -0.328125 3.75 -0.300781 3.78125 -0.28125 C 3.820312 -0.269531 3.875 -0.257812 3.9375 -0.25 C 4 -0.238281 4.078125 -0.234375 4.171875 -0.234375 L 4.171875 0 L 2.984375 0.0625 L 2.921875 -0.46875 L 2.890625 -0.46875 C 2.785156 -0.300781 2.640625 -0.171875 2.453125 -0.078125 C 2.265625 0.015625 2.054688 0.0625 1.828125 0.0625 C 1.398438 0.0625 1.070312 -0.0859375 0.84375 -0.390625 C 0.675781 -0.628906 0.59375 -0.960938 0.59375 -1.390625 L 0.59375 -2.203125 C 0.59375 -2.359375 0.585938 -2.484375 0.578125 -2.578125 C 0.566406 -2.671875 0.546875 -2.742188 0.515625 -2.796875 C 0.484375 -2.847656 0.429688 -2.878906 0.359375 -2.890625 C 0.296875 -2.910156 0.203125 -2.925781 0.078125 -2.9375 L 0.078125 -3.1875 L 1.421875 -3.1875 L 1.421875 -1.484375 C 1.421875 -1.078125 1.46875 -0.78125 1.5625 -0.59375 C 1.664062 -0.414062 1.828125 -0.328125 2.046875 -0.328125 C 2.285156 -0.328125 2.46875 -0.4375 2.59375 -0.65625 C 2.726562 -0.863281 2.796875 -1.171875 2.796875 -1.578125 Z M 2.796875 -2.203125 "/></g></g></g></g></g></svg>